<?xml version="1.0" standalone="no"?>
<!DOCTYPE svg PUBLIC "-//W3C//DTD SVG 20010904//EN"
 "http://www.w3.org/TR/2001/REC-SVG-20010904/DTD/svg10.dtd">
<svg version="1.0" xmlns="http://www.w3.org/2000/svg"
 width="300.000000pt" height="122.000000pt" viewBox="0 0 300.000000 122.000000"
 preserveAspectRatio="xMidYMid meet">
<metadata>
Created by potrace 1.10, written by Peter Selinger 2001-2011
</metadata>
<g transform="translate(0.000000,122.000000) scale(0.100000,-0.100000)"
fill="#000000" stroke="none">
<path d="M27 952 c-15 -17 -17 -57 -17 -363 0 -255 3 -348 12 -357 9 -9 104
-12 365 -12 338 0 353 1 363 19 6 13 10 144 10 359 0 316 -1 340 -18 355 -17
15 -56 17 -359 17 -317 0 -341 -1 -356 -18z m690 -19 c19 -7 19 -679 1 -685
-26 -9 -653 -7 -668 2 -12 8 -15 59 -16 337 -1 203 2 333 9 341 7 9 85 12 335
11 180 -1 332 -4 339 -6z"/>
<path d="M282 898 c-5 -7 -8 -37 -6 -67 2 -30 1 -58 -2 -62 -4 -7 -52 8 -64
21 -3 3 -18 11 -33 19 -24 13 -29 13 -43 0 -12 -13 -15 -51 -15 -219 0 -257
-2 -254 116 -180 17 10 32 19 35 19 3 1 5 -27 4 -62 0 -102 4 -105 94 -55 42
23 89 49 104 57 14 9 64 38 110 65 116 69 116 69 35 116 -29 16 -47 30 -42 31
6 0 2 4 -8 7 -14 6 -6 14 38 37 75 39 82 48 53 77 -13 13 -22 27 -20 31 1 5
-2 6 -7 3 -5 -4 -80 34 -167 84 -86 49 -160 90 -164 90 -4 0 -12 -6 -18 -12z
m340 -192 c21 -12 38 -23 38 -26 0 -3 -34 -23 -75 -45 -41 -22 -75 -43 -75
-47 0 -5 -4 -8 -9 -8 -5 0 -53 -25 -106 -55 -54 -30 -99 -55 -101 -55 -2 0 -4
54 -4 121 0 66 -4 118 -9 115 -4 -3 -8 -49 -8 -101 0 -53 -3 -98 -6 -101 -3
-4 1 -13 9 -21 8 -9 14 -17 12 -18 -8 -7 -139 -85 -143 -85 -3 0 -5 96 -5 214
l0 215 72 -45 c40 -24 75 -44 78 -44 3 0 3 40 2 90 l-4 90 149 -87 c81 -48
165 -96 185 -107z m-67 -140 c11 -7 41 -25 68 -38 l48 -26 -38 -20 c-21 -11
-105 -59 -187 -106 -82 -47 -151 -86 -153 -86 -2 0 -3 37 -1 83 2 45 5 80 8
78 9 -8 192 98 205 119 9 14 27 13 50 -4z"/>
<path d="M312 718 c6 -17 179 -118 190 -111 10 5 -9 33 -23 33 -5 0 -37 17
-71 38 -77 47 -101 57 -96 40z"/>
<path d="M1020 795 c0 -16 6 -25 15 -25 10 0 15 -10 15 -32 l0 -33 -65 0 c-57
0 -68 -3 -92 -28 -25 -24 -28 -36 -32 -107 -3 -88 8 -131 43 -155 24 -18 99
-20 129 -4 16 9 22 9 25 0 2 -6 24 -11 48 -11 42 0 44 1 44 30 0 20 -5 30 -15
30 -13 0 -15 27 -15 180 l0 180 -50 0 c-47 0 -50 -2 -50 -25z m70 -169 c0
-108 4 -167 11 -172 16 -10 -5 -26 -24 -18 -12 4 -14 11 -8 22 5 10 9 55 10
101 1 65 -3 88 -15 102 -15 17 -15 19 0 34 19 19 21 66 4 83 -9 9 -8 12 5 12
15 0 17 -16 17 -164z m-155 34 c-10 -11 -23 -20 -29 -20 -6 1 0 10 13 20 30
26 39 26 16 0z m103 -10 c10 0 12 -22 10 -92 l-3 -93 -45 -3 c-57 -4 -70 13
-70 93 0 79 24 111 75 100 11 -3 26 -5 33 -5z m-136 -67 c-5 -76 -10 -83 -11
-15 0 34 2 62 7 62 4 0 6 -21 4 -47z m22 -121 c17 -17 25 -32 18 -32 -16 0
-52 41 -52 59 0 8 1 12 3 10 1 -2 15 -19 31 -37z"/>
<path d="M2450 803 c-78 -25 -90 -51 -90 -198 0 -130 11 -165 60 -190 40 -21
134 -19 171 2 64 38 80 162 26 209 -30 26 -98 37 -149 25 -38 -9 -38 -9 -38
23 0 53 19 69 89 74 57 4 61 3 61 -17 0 -16 6 -21 25 -21 23 0 25 4 25 44 0
42 -1 44 -37 50 -44 7 -121 7 -143 -1z m20 -30 c0 -5 -13 -16 -29 -25 -38 -21
-52 -79 -26 -108 15 -17 15 -21 3 -34 -25 -24 -14 -114 19 -148 15 -15 34 -28
42 -29 10 0 11 -3 4 -5 -22 -9 -74 27 -89 61 -16 40 -19 173 -4 227 6 21 21
44 33 53 23 16 47 20 47 8z m140 -13 c0 -5 -4 -10 -9 -10 -6 0 -13 5 -16 10
-3 6 1 10 9 10 9 0 16 -4 16 -10z m-8 -157 c13 -11 18 -30 18 -65 0 -60 -11
-83 -50 -103 -41 -21 -61 -19 -25 3 45 28 56 46 57 97 0 34 -4 50 -16 57 -16
9 -22 28 -9 28 3 0 15 -7 25 -17z m-40 -20 c24 -21 23 -74 -1 -104 -13 -17
-29 -23 -56 -23 -51 0 -75 30 -75 95 l0 49 57 0 c38 0 62 -5 75 -17z"/>
<path d="M2760 793 c-53 -27 -80 -89 -80 -183 0 -100 13 -142 56 -179 30 -27
42 -31 90 -31 71 0 108 21 135 77 18 37 20 58 17 136 -4 100 -17 138 -60 170
-37 28 -114 33 -158 10z m8 -54 l-40 -38 4 -106 c3 -106 3 -107 36 -136 36
-33 76 -37 110 -13 39 27 52 67 52 159 0 97 -16 140 -57 156 -14 5 -23 13 -19
16 4 4 22 -1 42 -12 28 -15 37 -28 49 -69 14 -51 14 -151 0 -197 -25 -81 -131
-104 -201 -44 -28 24 -29 30 -32 118 -5 113 8 166 44 188 46 28 52 17 12 -22z
m109 -13 c26 -23 28 -30 31 -113 2 -58 -2 -96 -10 -113 -25 -48 -105 -52 -129
-8 -7 12 -12 65 -13 116 -1 91 0 95 27 118 35 30 59 30 94 0z"/>
<path d="M1229 695 c-38 -21 -59 -73 -59 -147 0 -72 24 -122 66 -138 28 -11
153 -14 178 -4 9 3 16 17 16 30 0 23 -2 24 -79 24 -86 0 -111 12 -111 53 0 21
3 22 100 19 l100 -4 0 36 c0 58 -27 112 -65 130 -41 20 -111 20 -146 1z m151
-35 c0 -5 -2 -10 -4 -10 -3 0 -8 5 -11 10 -3 6 -1 10 4 10 6 0 11 -4 11 -10z
m-30 -20 c11 -11 20 -29 20 -40 0 -18 -7 -20 -65 -20 -58 0 -65 2 -65 20 0 28
35 60 65 60 14 0 34 -9 45 -20z m-132 -15 c-9 -19 -8 -31 1 -48 10 -18 9 -28
-3 -52 l-16 -30 0 58 c0 32 5 67 10 78 15 28 22 23 8 -6z m192 -21 c0 -8 -4
-12 -10 -9 -5 3 -10 13 -10 21 0 8 5 12 10 9 6 -3 10 -13 10 -21z m-5 -34 c3
-5 1 -10 -4 -10 -6 0 -11 5 -11 10 0 6 2 10 4 10 3 0 8 -4 11 -10z m-161 -122
c7 -5 8 -8 1 -8 -16 0 -35 22 -35 40 1 11 4 10 12 -5 6 -11 16 -23 22 -27z"/>
<path d="M1460 678 c0 -18 5 -28 15 -28 12 0 15 -17 15 -95 0 -78 -3 -95 -15
-95 -10 0 -15 -10 -15 -30 0 -30 0 -30 59 -30 58 0 59 1 63 30 3 20 0 30 -9
30 -10 0 -13 22 -13 89 l0 89 37 13 c56 18 64 -1 62 -136 l-2 -110 38 -3 37
-3 -3 120 -4 121 29 10 c38 13 42 13 61 -6 14 -14 16 -36 14 -128 l-3 -111 47
-3 c46 -3 47 -3 47 27 0 21 -5 31 -15 31 -12 0 -15 18 -15 105 0 92 -3 108
-20 125 -24 24 -76 26 -123 6 -28 -11 -36 -11 -52 0 -25 18 -86 18 -111 -1
-24 -18 -34 -19 -34 -2 0 8 -16 12 -45 12 -42 0 -45 -2 -45 -27z m90 -18 c0
-5 -4 -12 -10 -15 -14 -9 -13 -182 1 -191 14 -8 -8 -24 -35 -24 -15 0 -16 3
-6 15 8 10 11 47 8 120 -2 64 1 106 7 109 14 4 35 -4 35 -14z m140 7 c12 -10
14 -33 12 -119 -2 -60 -7 -108 -13 -108 -5 0 -9 46 -9 104 0 59 -4 108 -10
111 -12 7 -13 25 -2 25 4 0 14 -6 22 -13z m164 -9 c19 -26 21 -48 5 -48 -6 0
-9 6 -6 13 2 6 -5 22 -16 35 -11 12 -15 22 -9 22 6 0 18 -10 26 -22z m15 -128
c0 -33 5 -69 11 -80 11 -21 4 -25 -18 -12 -8 6 -11 33 -10 85 2 89 15 95 17 7z"/>
<path d="M1994 691 c-38 -23 -54 -65 -54 -138 0 -105 43 -153 135 -153 93 0
135 48 135 155 0 71 -20 119 -59 139 -42 22 -119 20 -157 -3z m16 -36 c-18
-19 -25 -40 -28 -86 -5 -69 8 -103 48 -124 15 -9 19 -14 10 -15 -22 0 -62 29
-55 41 4 5 1 9 -4 9 -7 0 -11 28 -11 73 0 63 3 75 25 100 14 15 29 27 32 27 4
0 -4 -11 -17 -25z m154 -10 c9 -14 16 -35 15 -47 0 -20 -2 -19 -11 7 -6 17
-20 40 -32 53 -16 18 -17 22 -4 17 9 -4 24 -17 32 -30z m-36 -13 c18 -23 16
-137 -4 -156 -24 -24 -80 -20 -98 6 -16 22 -21 93 -10 135 11 40 84 49 112 15z
m49 -109 c-3 -10 -5 -2 -5 17 0 19 2 27 5 18 2 -10 2 -26 0 -35z m-4 -43 c-3
-10 -12 -25 -21 -32 -13 -11 -14 -11 -9 2 4 8 10 23 13 33 9 24 23 22 17 -3z"/>
<path d="M2245 660 c0 -40 0 -40 37 -40 38 0 38 0 38 40 0 40 0 40 -38 40 -37
0 -37 0 -37 -40z m45 0 c0 -5 -4 -10 -10 -10 -5 0 -10 5 -10 10 0 6 5 10 10
10 6 0 10 -4 10 -10z"/>
<path d="M2246 448 c2 -42 3 -43 38 -45 l36 -2 0 44 0 45 -38 0 -38 0 2 -42z
m40 -15 c-10 -10 -19 5 -10 18 6 11 8 11 12 0 2 -7 1 -15 -2 -18z"/>
</g>
</svg>
